<svg width="223" height="114" viewBox="0 0 223 114" fill="none" xmlns="http://www.w3.org/2000/svg">
<g id="Group 2381">
<path id="america" d="M52.0737 11.0384C51.994 10.4099 51.8328 9.79432 51.5942 9.20719C51.5638 9.09616 51.5105 8.99267 51.4378 8.90331C51.3651 8.81395 51.2745 8.74068 51.1718 8.68817C51.0346 8.65257 50.8907 8.65096 50.7527 8.68349L48.6008 9.01197C48.4207 9.02018 48.2483 9.08703 48.1098 9.20229C47.8296 9.49634 48.1056 9.96984 48.097 10.3755C48.0873 10.8317 47.6811 11.202 47.2405 11.3245C46.7908 11.4151 46.3269 11.4094 45.8795 11.3076L42.8706 10.8412C43.7568 10.5589 44.5455 10.0338 45.1469 9.32573C45.5429 8.85776 45.7535 7.98407 45.1812 7.76246C45.0112 7.71591 44.8339 7.70171 44.6586 7.7206C43.2954 7.73117 42.2226 6.59563 40.9463 6.11738C40.1295 5.83107 39.2428 5.80977 38.4131 6.05652C37.5834 6.30327 36.8532 6.80544 36.3268 7.49121L37.9298 7.56831C38.0806 7.56001 38.2301 7.59979 38.3567 7.68191C38.708 7.96985 38.2713 8.52291 38.3208 8.97378C38.385 9.55956 39.1647 9.68464 39.7524 9.74387C40.3401 9.8031 41.0856 10.2795 40.8029 10.7969C37.8491 11.8119 34.8433 8.81273 31.7411 9.18192C30.956 9.27536 30.2146 9.58307 29.448 9.77656C24.7654 10.9585 19.9243 7.80491 15.1408 8.47279C14.0773 8.65365 13.0321 8.92865 12.0176 9.29453C11.3665 9.5078 10.6874 9.73827 10.2144 10.2329C9.74134 10.7275 9.5613 11.5733 10.0094 12.0905C8.77424 12.1919 7.53079 12.074 6.33688 11.7422C6.65973 11.9212 6.92832 12.1837 7.11445 12.502C7.30058 12.8203 7.39738 13.1827 7.39469 13.5512C5.46607 13.865 3.58853 14.4361 1.81255 15.2493C2.14401 15.7992 2.53116 16.3137 2.96792 16.7847L0.526337 18.3496C1.35122 18.5569 1.7777 19.679 1.29801 20.3799C2.15331 20.0003 2.6834 19.0183 3.59801 18.8192C4.1972 18.6888 4.80689 18.9333 5.37532 19.163C5.94374 19.3927 6.5685 19.6155 7.15694 19.4431C7.74538 19.2707 8.17941 18.5095 7.80549 18.0245C10.3206 17.2924 12.92 16.8872 15.5391 16.8191C15.7412 16.7938 15.9461 16.8326 16.1248 16.93C16.4658 17.166 16.3761 17.6757 16.3577 18.0892C16.3393 18.5028 16.6624 19.0464 17.0329 18.8599C16.597 19.237 16.9697 19.947 17.3879 20.3435C17.8061 20.74 18.3102 21.2872 18.0541 21.803C17.9873 21.9377 17.874 22.0454 17.8097 22.1812C17.6199 22.5822 17.9212 23.0497 18.2766 23.316C18.6321 23.5823 19.0674 23.7684 19.3143 24.1371C19.5612 24.5059 19.4491 25.1513 19.0076 25.2028L17.7527 23.6133C17.324 24.0568 17.0301 24.6125 16.9051 25.2159C18.2357 26.3011 18.4359 28.51 17.3219 29.8157C16.7526 30.4829 15.943 30.8883 15.2364 31.4088C14.5298 31.9292 13.876 32.6704 13.8778 33.5466C13.8808 35.0604 13.7568 36.4668 14.3255 37.8703C15.374 40.4582 16.5845 42.9778 17.9499 45.4142C18.3085 46.054 18.7719 46.7552 19.4983 46.8653C18.5803 44.6358 17.7539 42.3716 17.0191 40.0727C17.4977 40.0746 18.0508 40.1125 18.3313 40.4993C18.5636 40.8196 18.5137 41.255 18.5859 41.6438C18.6777 42.0204 18.8308 42.3795 19.0391 42.7067L23.4228 50.4969C23.7862 51.1427 24.2031 51.8359 24.8976 52.0974C25.3417 52.2646 25.8554 52.2331 26.2641 52.4739C26.5845 52.6626 26.8003 52.9975 27.1269 53.1753C28.0503 53.6778 29.3345 52.714 30.1975 53.314C30.4442 53.4856 30.6012 53.7581 30.8286 53.9546C31.6256 54.6432 32.9331 54.1825 33.8532 54.6962C34.4462 55.0273 34.7535 55.6894 35.0698 56.2894C35.8621 57.7923 37.1441 59.2648 38.842 59.3844C39.3753 59.422 39.9201 59.3212 40.4415 59.4395C40.9628 59.5578 41.476 60.0118 41.3923 60.5386C41.2489 61.4418 41.6962 62.4308 41.576 63.3374C41.3572 64.9888 39.0093 65.7145 38.8076 67.368C38.7635 67.7301 38.8326 68.1037 38.7462 68.4581C38.6403 68.8925 38.3133 69.2461 38.1971 69.6778C37.9769 70.4959 38.5645 71.3101 39.2099 71.8605C39.8554 72.4109 40.6253 72.8856 40.9781 73.656C41.3511 74.4704 41.1679 75.42 41.2892 76.3071C41.554 78.2439 43.2308 79.6796 44.9564 80.6054C45.4822 80.8875 46.0467 81.1605 46.387 81.6499C46.8312 82.2885 46.7869 83.1304 46.9352 83.8936C47.2985 85.7624 48.8755 87.3023 48.9203 89.2055C48.9521 90.5582 48.1984 91.7854 47.7481 93.0617C47.326 94.2846 47.1733 95.5839 47.3003 96.8711C47.4273 98.1582 47.8312 99.4029 48.4843 100.52C48.8211 101.088 49.2239 101.622 49.4622 102.238C49.8873 103.335 49.7494 104.583 50.1414 105.693C50.6597 107.16 52.0839 108.372 51.9476 109.922C52.5941 111.261 54.0219 111.919 55.4575 112.318L58.0306 113.033C58.5233 113.17 59.0381 113.307 59.5397 113.208C60.0414 113.109 60.5202 112.694 60.5072 112.184C59.2455 111.9 57.9432 111.598 56.9031 110.831C55.8629 110.064 55.1504 108.698 55.5451 107.469C55.7281 106.899 56.1174 106.241 55.7473 105.77C55.5353 105.501 55.1478 105.43 54.9088 105.184C54.5359 104.801 54.664 104.156 54.9321 103.693C55.2001 103.231 55.5875 102.817 55.6956 102.294C55.7502 102.001 55.7138 101.699 55.5911 101.427C55.4685 101.156 55.2656 100.928 55.0096 100.775C55.4867 100.595 55.9206 100.318 56.2832 99.9598C56.6181 99.5782 56.7728 98.99 56.5093 98.5562C57.2917 98.6552 58.2154 98.7037 58.729 98.1066C59.1391 97.6298 59.1109 96.917 58.9489 96.3099C58.7868 95.7028 58.5129 95.1131 58.5044 94.4849C60.3092 94.5702 62.118 94.509 63.9128 94.3019C63.6533 93.4298 63.0635 92.6929 62.2685 92.2474C63.0814 92.1102 63.8219 91.1393 64.0788 90.3577C64.3356 89.5762 64.2701 88.7249 64.1114 87.9177C64.0504 87.7099 64.042 87.4903 64.087 87.2785C64.1786 86.9875 64.4651 86.8099 64.7303 86.658L68.7652 84.3462C69.006 84.2258 69.2242 84.0651 69.4104 83.871C69.8332 83.3756 69.7705 82.6278 69.5541 82.0141C69.3376 81.4004 68.9909 80.8233 68.9075 80.178C68.6582 78.2483 70.7288 76.8637 71.4276 75.0471C71.7019 74.3343 71.7578 73.5594 71.8108 72.7976C71.8678 71.9795 71.8721 71.0292 71.2424 70.5019C70.6388 69.9966 69.6957 70.1093 69.0641 69.6392C68.485 69.2082 68.2852 68.3712 67.6526 68.023C67.0781 67.7069 66.3578 67.908 65.7189 67.7593C64.5939 67.4975 63.8859 66.204 62.737 66.0842C62.0887 66.0166 61.355 66.3328 60.8237 65.9561C60.3556 65.6242 60.3368 64.9572 60.2477 64.3912C60.0915 63.5115 59.6689 62.7007 59.0367 62.068C58.4045 61.4353 57.5931 61.011 56.7119 60.8524C56.0435 60.7455 55.316 60.7861 54.7473 60.4196C54.1716 60.0486 53.9076 59.3539 53.4553 58.84C52.7264 58.0119 51.5784 57.7176 50.503 57.4654L46.1286 56.4395C45.3521 56.2574 44.3512 56.1608 43.9344 56.8394C43.8111 57.0978 43.7238 57.3718 43.6749 57.6538C43.5188 58.1639 43.2045 58.6115 42.7774 58.9323C42.3502 59.253 41.8321 59.4304 41.2975 59.439C40.9309 58.8151 40.337 58.3566 39.6396 58.1592C39.1961 58.0359 38.7213 58.0222 38.2983 57.8407C38.0679 57.7285 37.8628 57.5706 37.6957 57.3767C37.5286 57.1827 37.403 56.9567 37.3264 56.7126C37.2499 56.4685 37.2241 56.2114 37.2506 55.957C37.2771 55.7026 37.3554 55.4563 37.4807 55.2331C37.7329 54.7852 37.8303 54.2669 37.7578 53.7582C37.6854 53.2495 37.4472 52.7787 37.0799 52.4186C36.336 51.7523 35.2599 51.5913 34.2624 51.658C34.0012 51.0893 34.438 50.4477 34.9087 50.0344C35.3794 49.6211 35.951 49.2148 36.0535 48.5977C36.2148 47.6269 34.9732 46.8896 34.0305 47.1791C33.0878 47.4685 32.4861 48.382 32.0883 49.2825C31.8601 49.7991 31.6661 50.3432 31.3061 50.7788C30.9462 51.2144 30.3665 51.5264 29.8182 51.3866C29.0419 51.1886 28.7421 50.2686 28.5704 49.4879C28.3399 48.4404 28.108 47.3785 28.1563 46.3071C28.2046 45.2358 28.5666 44.1358 29.3585 43.4106C30.6488 42.2288 32.6283 42.3446 34.3698 42.5332C33.9583 42.0707 34.06 41.2913 34.5002 40.856C34.7326 40.6501 35.0118 40.5037 35.3137 40.4297C35.6156 40.3558 35.931 40.3563 36.2326 40.4314C36.7574 40.5404 37.2301 40.8224 37.5747 41.232C38.0696 41.8339 38.2103 42.6466 38.5843 43.3298C38.9584 44.013 39.7995 44.5958 40.4879 44.2292C41.0825 43.9126 41.1769 43.09 41.0289 42.434C40.8809 41.778 40.5666 41.1401 40.6202 40.4699C40.7225 39.1909 42.0514 38.4211 43.2241 37.8943C44.3968 37.3676 45.7397 36.6592 45.9255 35.3896C45.9318 35.1411 45.9788 34.8952 46.0646 34.6617C46.1946 34.4555 46.3754 34.286 46.5897 34.1691C50.0123 31.9126 53.4918 29.6286 57.4036 28.3956C57.6071 28.3314 57.631 28.4027 57.8384 28.3525C58.1287 28.1851 57.9364 27.7221 57.6581 27.5356C57.3797 27.349 57.0078 27.206 56.9371 26.879C56.8852 26.6387 57.0272 26.4027 57.0641 26.1596C57.1547 25.5622 56.4383 25.0106 55.882 25.2494C55.5678 24.8343 56.1896 24.3519 56.6923 24.2138C58.202 23.7993 59.7517 23.5467 61.3152 23.4604C61.4956 23.4318 61.6804 23.4631 61.8412 23.5497C62.1038 23.7311 62.0702 24.1473 61.8841 24.4063C61.6981 24.6654 61.4086 24.828 61.1767 25.0472C60.9233 25.2934 60.7426 25.6043 60.6542 25.946C60.5659 26.2878 60.5733 26.6471 60.6758 26.9849C61.4919 27.3991 62.3793 27.8254 63.2832 27.6795C64.1872 27.5336 64.9895 26.5203 64.5646 25.7111C64.1689 24.9575 62.9804 24.7875 62.776 23.9616C62.5367 22.9946 63.9089 22.1345 63.5998 21.1874C63.4644 20.7726 63.05 20.5284 62.732 20.2289C62.3564 19.8617 62.1009 19.3897 61.9991 18.875C61.8973 18.3603 61.9539 17.8269 62.1614 17.3449C61.6434 17.4358 61.1112 17.4014 60.6092 17.2447C60.1073 17.088 59.6503 16.8135 59.2767 16.4443C58.5867 15.7496 58.0362 14.6537 57.0564 14.6848C56.1573 14.7133 55.3828 15.7598 54.5421 15.4405C54.3353 15.362 54.1172 15.2021 53.9168 15.2958C53.8511 15.3383 53.796 15.3952 53.7556 15.4621C53.7152 15.529 53.6905 15.6042 53.6835 15.6821C53.4699 16.7011 53.8374 17.8622 53.2807 18.7428C52.6749 19.7011 51.2735 19.8339 50.5391 20.698C50.1404 21.1671 49.9859 21.7992 49.6195 22.2937C49.253 22.7882 48.4752 23.1027 48.0354 22.6717C48.2516 22.2284 48.3106 21.7251 48.2029 21.244C48.0951 20.7629 47.827 20.3325 47.4423 20.0231C47.034 19.7574 46.5939 19.5438 46.1322 19.3874C45.6164 19.1696 45.1257 18.8967 44.6687 18.5736C44.4397 18.4359 44.2537 18.2373 44.1314 18.0001C44.0346 17.7031 44.0476 17.3814 44.1681 17.0931C44.3911 16.4553 44.7845 15.8903 45.3059 15.4592C45.8272 15.0282 46.4567 14.7473 47.1263 14.6471C47.7119 14.5676 48.3934 14.5956 48.7809 14.1505C48.9859 13.915 49.0935 13.5589 49.3911 13.4633C49.5815 13.4251 49.7791 13.4494 49.9545 13.5325L52.1401 14.3C52.384 14.4098 52.6524 14.4541 52.9187 14.4284C53.0508 14.4107 53.1712 14.3438 53.2559 14.2411C53.3405 14.1385 53.3831 14.0077 53.3752 13.875C53.3053 13.5129 52.7468 13.3391 52.7977 12.9739C52.8261 12.8556 52.8899 12.7486 52.9806 12.6672C53.7693 11.8296 54.7339 11.1765 55.8053 10.7544C56.8767 10.3323 58.0284 10.1517 59.178 10.2256C59.4538 10.6776 59.0175 11.2129 58.6545 11.5987C58.2915 11.9846 57.9998 12.674 58.4388 12.971C58.6187 13.0626 58.8188 13.1076 59.0207 13.1017C59.5588 13.1744 60.0818 13.3326 60.5696 13.5704C61.3249 13.8983 62.0656 14.2571 62.7919 14.6467C62.7277 14.169 62.6665 13.6657 62.848 13.219C63.0295 12.7724 63.5454 12.422 63.9959 12.596C64.4302 12.7636 64.6529 13.3372 65.1155 13.3898C65.7326 13.4599 65.9761 12.5503 65.7183 11.9866C65.4605 11.4229 64.9502 10.9508 64.9076 10.3327C64.8789 9.91562 65.038 9.3984 64.704 9.14587C64.5852 9.07005 64.4503 9.02287 64.3101 9.00805L55.9725 7.47742C55.4774 7.38653 54.7621 7.45619 54.7401 7.95794C54.7278 8.23801 54.9786 8.51508 54.8675 8.77259C54.749 9.04742 54.3596 9.02229 54.0759 9.1195C53.6358 9.27033 53.415 9.79168 53.4573 10.254C53.5346 10.7134 53.713 11.15 53.9795 11.5325C53.4372 11.3063 52.616 11.2647 52.0737 11.0384Z" fill="#3F3D56"/>
<path id="Vector" d="M45.4211 3.97763C44.8954 3.80406 44.3288 3.79597 43.7983 3.95447C43.2678 4.11298 42.799 4.43041 42.4554 4.86372C42.3181 5.04404 42.2028 5.29263 42.3177 5.4879C42.4825 5.76784 42.9024 5.65727 43.2119 5.55713C43.6669 5.39497 44.1621 5.38318 44.6243 5.52351C44.9149 5.62307 45.175 5.79902 45.4669 5.89482C45.609 5.95412 45.7646 5.9737 45.917 5.95148C46.0694 5.92926 46.2129 5.86607 46.3321 5.76869C46.5324 5.56484 46.545 5.24792 46.5454 4.96242C46.5592 4.86689 46.5516 4.76947 46.5229 4.67727C46.4943 4.58507 46.4454 4.50042 46.3797 4.42948C46.2629 4.36196 46.1316 4.32322 45.9967 4.31646C45.6946 4.26068 45.4216 4.1015 45.2246 3.86638" fill="#3F3D56"/>
<path id="Vector_2" d="M48.4275 3.14255C48.3098 3.13616 48.1925 3.16008 48.0868 3.212C47.9811 3.26392 47.8905 3.3421 47.8238 3.43902C47.7572 3.53595 47.7166 3.64836 47.7061 3.76544C47.6955 3.88252 47.7154 4.00033 47.7637 4.10756C48.125 4.20587 48.5025 4.23043 48.8736 4.17976C49.0587 4.15109 49.2311 4.06841 49.3692 3.94213C49.5072 3.81585 49.6047 3.65164 49.6494 3.47017C49.2125 3.54948 48.7617 3.46358 48.3848 3.22922" fill="#3F3D56"/>
<path id="Vector_3" d="M58.5142 1.74791C57.5307 1.95651 56.5754 2.28028 55.668 2.71247C56.0957 2.8765 56.4594 3.17327 56.7053 3.55906C56.9512 3.94484 57.0663 4.39922 57.0338 4.85524C56.9954 5.03031 56.9999 5.21203 57.0468 5.38502C57.1513 5.63784 57.4542 5.7327 57.7205 5.79759C58.1989 5.94285 58.6985 6.00647 59.1982 5.98576C59.4481 5.97271 59.6909 5.89769 59.9045 5.76749C60.118 5.63729 60.2957 5.45602 60.4214 5.24007C60.4938 5.03512 60.5787 4.8348 60.6757 4.64022C61.314 3.67039 63.2103 4.84306 63.8956 3.90571C64.137 3.57551 64.1149 3.07847 64.4297 2.81683C64.5925 2.70283 64.7811 2.631 64.9787 2.60781C66.3569 2.33464 67.749 2.13684 69.1488 2.01529C69.8121 1.95771 70.6766 1.72011 70.6822 1.05593C68.1839 0.566442 65.5935 0.914099 63.3136 2.04485C62.4922 2.45529 61.4059 3.31865 60.6147 2.77451C60.3184 2.57078 60.3331 2.02217 59.9254 1.79308C59.5085 1.55886 58.9567 1.65412 58.5142 1.74791Z" fill="#3F3D56"/>
<path id="Vector_4" d="M66.6843 3.27214L67.8571 3.49695C67.6412 3.48741 67.4258 3.52391 67.2252 3.60401C67.0246 3.68411 66.8434 3.80597 66.6937 3.96146C66.5441 4.11695 66.4293 4.30249 66.3573 4.50571C66.2852 4.70892 66.2573 4.92514 66.2756 5.13994C67.3739 5.50595 68.5712 5.14978 69.728 5.19843C70.8849 5.24709 72.2309 6.07149 72.0334 7.2097C71.9737 7.55386 71.7744 7.89778 71.878 8.23141C71.9507 8.46524 72.1574 8.63116 72.2741 8.84652C72.5172 9.29529 72.3229 9.86293 72.0159 10.2709C71.7089 10.6788 71.2962 11.0043 71.0267 11.4379C70.3565 12.5161 70.7373 13.9101 71.1365 15.1147C71.252 15.5699 71.4652 15.9946 71.7613 16.3595C72.3528 16.9869 73.3168 17.0415 74.1801 17.054C74.8084 17.0632 75.5282 17.0322 75.9256 16.5466C76.4443 15.9125 76.0816 14.9232 76.4231 14.179C76.7333 13.5031 77.5236 13.2132 78.2397 13.0075C79.5514 12.6308 80.8882 12.3105 82.1284 11.7414C83.6683 11.0348 85.1075 9.93361 86.8 9.84265C87.2749 9.81713 87.7615 9.87304 88.2189 9.74325C88.6763 9.61345 89.1108 9.21894 89.0761 8.74579C89.0466 8.34152 88.7037 8.04466 88.4358 7.7399C88.1679 7.43514 87.9575 6.96652 88.2038 6.64408L92.6402 5.81739C92.3257 4.9624 92.0807 3.83636 92.8034 3.27983C93.0641 3.07903 93.4132 2.99878 93.6352 2.75603C94.0135 2.34228 93.8233 1.62957 93.3865 1.2777C92.9498 0.925838 92.3592 0.844155 91.7997 0.797794C89.8545 0.636621 87.898 0.743121 85.949 0.849703C82.139 1.05805 78.3291 1.26639 74.5191 1.47474C73.7521 1.51668 72.8666 1.45261 72.1631 1.71365C71.5676 1.93465 71.1442 2.34031 70.4631 2.48284C69.2058 2.74596 67.8221 2.56791 66.6843 3.27214Z" fill="#3F3D56"/>
<path id="Vector_5" d="M87.6936 12.5198C87.5741 12.501 87.4519 12.5286 87.3522 12.5971C87.2864 12.6695 87.2472 12.7621 87.2411 12.8597C87.1654 13.2904 87.2556 13.7337 87.4936 14.1009C87.6149 14.281 87.7822 14.4255 87.9784 14.5193C88.1745 14.6131 88.3922 14.6528 88.6089 14.6343C89.1369 14.5672 89.5261 14.1177 90.0116 13.8984C90.7598 13.5607 93.9374 13.0343 91.7393 11.8496C90.9818 11.4413 90.4923 11.8017 89.8953 12.0706C89.216 12.4173 88.4548 12.5726 87.6936 12.5198Z" fill="#3F3D56"/>
<path id="Vector_6" d="M106.946 2.60331C106.69 2.70792 106.475 2.89439 106.336 3.13358C106.271 3.25504 106.257 3.39645 106.294 3.52856C106.331 3.66067 106.418 3.77336 106.537 3.84333C106.633 3.87801 106.734 3.89409 106.836 3.89071L107.88 3.92182C108.323 3.93503 108.877 4.02923 108.996 4.45547C109.084 4.77196 108.886 5.17866 109.125 5.40483C109.228 5.48404 109.351 5.53201 109.48 5.54297C109.824 5.63107 110.183 5.64263 110.532 5.57682C111.291 5.37363 110.892 4.91128 111.131 4.49959C111.497 3.86968 111.434 4.25099 112.079 3.88998C112.555 3.62336 113.17 3.13972 112.773 2.46019C112.082 1.27851 107.966 2.09566 106.946 2.60331Z" fill="#3F3D56"/>
<path id="Vector_7" d="M127.545 2.00927L126.939 2.08995C125.572 2.27188 124.198 2.45548 122.882 2.86488C123.451 3.0896 124.049 3.23592 124.658 3.29982C124.994 3.31622 125.327 3.36347 125.654 3.44096C126.235 3.61361 126.821 4.05944 127.382 3.83106C127.731 3.68946 127.844 3.32773 128.133 3.13602C128.332 3.00365 129.087 2.7894 129.172 2.65579C129.855 1.57565 128.069 1.93941 127.545 2.00927Z" fill="#3F3D56"/>
<path id="Vector_8" d="M130.206 4.75695C129.396 5.2085 128.645 5.7572 127.969 6.39081C127.685 6.65783 127.394 6.98993 127.42 7.37893C127.454 7.89595 128.006 8.19585 128.484 8.39787L130.422 9.21613C130.657 8.88567 130.441 8.4295 130.199 8.10476C129.956 7.78002 129.667 7.4043 129.774 7.01351C129.897 6.56756 130.442 6.41559 130.899 6.33877C131.644 6.21359 133.652 6.22363 133.411 5.02637C133.127 3.61564 130.953 4.34012 130.206 4.75695Z" fill="#3F3D56"/>
<path id="Vector_9" d="M129.816 84.5915C129.632 85.1242 129.614 85.7516 129.933 86.2167C130.291 86.7386 131.008 86.9331 131.627 86.8008C132.245 86.6369 132.795 86.284 133.2 85.7918C133.571 85.3794 133.876 84.9126 134.105 84.4076C134.424 83.6208 134.649 82.7991 134.776 81.9597L135.377 78.8091C135.512 78.105 135.506 75.9462 134.209 76.6496C133.855 76.8417 133.034 78.3588 132.663 78.789C131.994 79.5643 131.905 80.3167 131.553 81.256C131.111 82.4325 130.224 83.4131 129.816 84.5915Z" fill="#3F3D56"/>
<path id="Vector_10" d="M198.332 100.714C197.908 100.549 197.496 100.353 197.1 100.129C196.702 101.218 196.491 102.367 196.475 103.526L199.379 101.887C199.816 101.64 200.312 101.297 200.302 100.796C200.306 100.735 200.293 100.673 200.265 100.618C200.237 100.562 200.194 100.516 200.142 100.483C200.077 100.457 200.007 100.449 199.938 100.459C199.507 100.495 199.115 100.706 198.708 100.853C198.302 101 197.827 101.078 197.454 100.86" fill="#3F3D56"/>
<path id="Vector_11" d="M213.655 101.688C213.336 101.774 213.025 101.886 212.723 102.021C212.057 102.359 211.603 103.002 211.004 103.448C210.43 103.874 209.739 104.108 209.06 104.336C208.861 104.512 208.952 104.866 209.169 105.021C209.402 105.153 209.669 105.213 209.936 105.193C210.641 105.208 211.383 105.215 212.001 104.876C212.348 104.651 212.674 104.393 212.972 104.106C213.694 103.505 214.561 103.109 215.419 102.726C215.731 102.608 216.02 102.436 216.271 102.217C216.81 101.687 216.848 100.87 216.071 100.69C215.443 100.544 214.253 101.495 213.655 101.688Z" fill="#3F3D56"/>
<path id="Vector_12" d="M220.425 97.2758C220.46 96.9112 220.411 96.5435 220.283 96.2004C220.154 95.8572 219.95 95.5477 219.684 95.2952C219.676 96.0246 219.653 96.8018 219.242 97.405C218.949 97.8348 218.49 98.1251 218.169 98.5345C217.848 98.9439 217.705 99.5928 218.082 99.9521C218.322 100.135 218.616 100.236 218.918 100.239C219.668 100.327 220.535 100.377 221.061 99.8363C221.348 99.5414 221.488 99.1047 221.837 98.8879C221.968 98.8333 222.084 98.7501 222.178 98.6446C222.323 98.4155 222.093 98.1134 221.835 98.0309C221.576 97.9483 221.291 97.9871 221.032 97.9087C220.772 97.8303 220.533 97.5389 220.667 97.303" fill="#3F3D56"/>
<path id="Vector_13" d="M208.392 70.5305C207.999 70.6259 207.592 70.6499 207.19 70.6012C206.523 70.4788 206.003 69.9771 205.465 69.5656C204.184 68.5928 202.627 68.0501 201.018 68.0156C199.554 67.988 198.076 68.3838 196.638 68.1077C196.732 68.6289 197.179 69.0199 197.656 69.2522C198.133 69.4846 198.66 69.6016 199.139 69.8292C199.907 70.1974 200.516 70.8293 200.854 71.6091C201.009 71.9686 201.106 72.3598 201.34 72.6737C201.818 73.3154 202.724 73.4563 203.523 73.4038C204.566 73.3354 205.654 73.0363 206.624 73.4237C207.366 73.7201 207.897 74.368 208.517 74.8717C209.136 75.3754 210.009 75.7493 210.72 75.3858C209.981 75.1472 209.338 74.6792 208.885 74.0502C208.431 73.4211 208.191 72.664 208.2 71.8892C208.897 71.9532 210.907 71.9285 210.799 70.7458C210.707 69.7435 208.991 70.4223 208.392 70.5305Z" fill="#3F3D56"/>
<path id="australia" d="M199.266 78.6851C199.389 78.0073 200.067 77.4088 199.856 76.7528C199.71 76.2991 199.183 76.0751 198.705 76.0639C198.228 76.0527 197.759 76.1946 197.281 76.208C196.971 76.1915 196.659 76.1959 196.349 76.2212C195.401 76.3766 194.817 77.3676 193.924 77.7199C193.381 77.9342 192.771 77.8932 192.206 78.0413C190.924 78.3775 190.113 79.5861 189.217 80.5606C187.769 82.128 185.882 83.2256 183.802 83.7111C183.073 83.8795 182.289 83.9872 181.71 84.4595C180.942 85.085 180.753 86.1572 180.583 87.1309C180.111 89.8201 179.39 92.4598 178.43 95.0161L181.474 95.4038C182.053 95.4776 182.652 95.5497 183.21 95.3787C183.615 95.2262 183.999 95.0222 184.352 94.7718C185.708 93.932 187.225 93.3856 188.806 93.1678C189.603 93.0587 190.439 93.0387 191.187 93.3343C191.935 93.6299 192.577 94.3003 192.64 95.1006C192.963 95.0002 193.308 94.9894 193.637 95.0692C193.967 95.1491 194.268 95.3167 194.509 95.5541C194.986 96.0387 195.298 96.6604 195.402 97.3314C195.482 97.7469 195.562 98.2447 195.948 98.419C196.264 98.5613 196.625 98.4081 196.97 98.3806C198.141 98.2871 199.112 99.6486 200.262 99.4142C201.496 99.1627 201.799 97.3194 203.003 96.9501C203.694 96.738 204.664 96.9959 204.995 96.3544C205.286 95.789 204.704 95.1365 204.764 94.5033C204.838 93.7238 205.76 93.3929 206.471 93.0602C208.92 91.9134 210.083 88.624 208.896 86.1979C208.192 84.7605 206.808 83.629 206.553 82.0499C206.356 80.8349 206.836 79.4182 206.06 78.4619C205.665 77.9754 204.996 77.7069 204.761 77.1264C204.613 76.761 204.673 76.3464 204.593 75.9604C204.513 75.5745 204.176 75.1707 203.794 75.2708C202.685 75.5612 202.331 78.9791 201.737 79.8096C200.834 81.0719 198.981 80.2404 199.266 78.6851Z" fill="#3F3D56"/>
<path id="Vector_14" d="M178.766 71.8219C178.387 71.7159 177.973 71.6114 177.61 71.7629C177.247 71.9144 177.035 72.4463 177.327 72.7103C179.607 72.6217 181.901 72.5337 184.161 72.8426C186.766 73.1985 189.344 74.0801 191.96 73.8208C190.466 73.3809 188.947 73.0292 187.411 72.7676L184.85 72.2795C184.163 72.1359 183.468 72.0289 182.77 71.9589C181.309 71.8385 180.203 72.2237 178.766 71.8219Z" fill="#3F3D56"/>
<path id="Vector_15" d="M181.049 63.8995C180.86 63.8837 180.625 63.8701 180.527 64.0325C180.434 64.1876 180.541 64.3926 180.49 64.5666C180.422 64.8042 180.11 64.8649 179.864 64.8325C179.618 64.8002 179.352 64.7227 179.135 64.841C179.024 64.9162 178.941 65.0252 178.898 65.1515C178.855 65.2778 178.854 65.4147 178.896 65.5415C178.985 65.7934 179.129 66.0224 179.317 66.212C179.639 66.6169 180.006 66.9841 180.411 67.3066C181.195 67.8837 182.256 68.1618 182.75 68.9995C182.82 69.1619 182.927 69.3056 183.062 69.4189C183.299 69.5687 183.608 69.4548 183.863 69.3385L184.758 68.9308C184.919 68.873 185.063 68.7754 185.176 68.6472C185.38 68.3706 185.255 67.9774 185.083 67.6795C184.912 67.3816 184.692 67.0732 184.729 66.7317C184.794 66.1226 185.579 65.8897 185.902 65.3686C186.227 64.8434 186.016 64.1666 186.053 63.5503C186.097 62.8295 186.551 61.8919 185.821 61.3534C185.2 60.8957 184.607 61.3186 184.161 61.8239C183.221 62.8895 182.777 64.0434 181.049 63.8995Z" fill="#3F3D56"/>
<path id="Vector_16" d="M186.477 53.1301C186.782 53.7133 187.419 54.0614 187.752 54.6293C188.113 55.2449 188.072 56.0403 188.463 56.6369C188.865 57.2491 189.673 57.5741 189.898 58.2704C190.144 59.0306 189.586 59.9545 190.031 60.6188C190.114 60.7273 190.219 60.8175 190.338 60.8836C190.458 60.9498 190.59 60.9903 190.726 61.0028C190.863 61.0153 191 60.9994 191.13 60.9562C191.26 60.913 191.379 60.8433 191.48 60.7516C191.668 60.5479 191.768 60.2792 191.76 60.0028C191.752 59.7263 191.636 59.464 191.437 59.2717C191.173 59.0322 190.795 58.9287 190.575 58.6489C190.461 58.4875 190.384 58.3022 190.352 58.107C190.232 57.5441 190.251 56.9606 190.408 56.4068C190.467 56.2662 190.482 56.1112 190.451 55.962C190.352 55.675 189.962 55.6546 189.689 55.5215C189.068 55.2191 189.083 54.3447 189.191 53.6638C189.119 54.1171 187.501 53.3461 187.331 53.0893C186.994 52.5793 187.178 51.5953 187.111 51.0316C186.384 51.3811 186.104 52.4171 186.477 53.1301Z" fill="#3F3D56"/>
<path id="Vector_17" d="M170.171 62.103C169.872 61.7694 169.422 61.4204 169.022 61.6216C168.716 61.7751 168.632 62.1969 168.752 62.5166C168.898 62.8271 169.123 63.0943 169.404 63.2917C170.238 63.9784 171.137 64.5982 171.865 65.3965C173.168 66.8251 173.859 68.7527 175.276 70.0688C175.561 70.3739 175.938 70.5775 176.35 70.6486C176.763 70.6869 177.226 70.4233 177.274 70.0123C177.313 69.6738 177.076 69.3708 176.845 69.1199C176.295 68.5226 175.692 67.9727 175.172 67.3485C174.932 67.1088 174.781 66.7945 174.745 66.4576C174.742 66.1215 175.049 65.7698 175.376 65.853C174.979 65.7518 174.684 65.092 174.102 64.968C173.615 64.8643 173.497 65.165 172.917 64.9171C171.812 64.4442 170.945 62.9674 170.171 62.103Z" fill="#3F3D56"/>
<path id="Vector_18" d="M196.14 29.6168C195.823 29.5228 195.511 29.4117 195.206 29.2841C194.385 29.0383 193.3 29.6401 193.409 30.4878C193.482 31.051 194.007 31.4308 194.297 31.9193C194.728 32.6438 194.613 33.5628 194.387 34.3742C194.331 34.6254 194.226 34.8629 194.076 35.0726C193.868 35.294 193.618 35.4732 193.341 35.6003C192.233 36.2203 191.256 37.0485 190.463 38.0393C190.377 38.1308 190.317 38.2437 190.29 38.3662C190.25 38.6524 190.539 38.8609 190.702 39.0996C191.064 39.6299 190.802 40.3434 190.838 40.9841C190.833 41.0747 190.85 41.1652 190.89 41.247C190.929 41.3288 190.989 41.3993 191.063 41.4516C191.281 41.5622 191.54 41.3743 191.658 41.1605C192.051 40.4508 191.755 39.3116 192.492 38.9694C192.631 38.9047 192.8 38.8774 192.893 38.7553C193.041 38.5616 192.898 38.2748 192.973 38.0432C193.085 37.6956 193.562 37.68 193.928 37.6954C194.558 37.7217 195.187 37.6381 195.789 37.4482C196.025 37.3923 196.239 37.2685 196.405 37.0923C196.625 36.8182 196.605 36.4284 196.561 36.0798C196.341 34.3421 195.789 32.6626 194.936 31.1318C195.583 31.2143 196.287 31.2857 196.845 30.9493C197.158 30.7609 197.533 30.1976 197.378 29.8141C197.133 29.2078 196.69 29.7182 196.14 29.6168Z" fill="#3F3D56"/>
<path id="country" d="M113.188 39.1738C113.266 39.5881 113.342 40.0244 113.206 40.4234C113.07 40.8224 112.642 41.1558 112.237 41.0335C111.924 40.9386 111.742 40.6239 111.519 40.3839C110.28 39.0495 107.485 39.8221 106.72 38.1712C106.407 37.4974 106.619 36.6901 106.406 35.9789C106.272 35.5678 106.005 35.2129 105.646 34.9699C105.287 34.7269 104.858 34.6096 104.426 34.6364C104.031 34.6933 103.647 34.8077 103.286 34.9759C100.866 35.9428 98.3252 36.5767 95.7338 36.8603C95.2414 36.8902 94.7542 36.9786 94.2827 37.1237C93.2187 37.5085 92.4917 38.4926 91.9743 39.4968C91.4569 40.5011 91.075 41.5882 90.3813 42.4804C89.6523 43.4181 88.6307 44.0747 87.6778 44.7849C87.3107 45.0209 87.0051 45.3405 86.786 45.7174C86.5794 46.1405 86.591 46.6327 86.6071 47.1031L86.8018 52.8159C86.8269 53.5507 86.8583 54.3118 87.188 54.9694C87.5997 55.7906 88.4129 56.3284 88.977 57.0538C89.5528 57.7992 89.8527 58.7202 89.826 59.6609C89.814 60.0391 89.7763 60.4864 90.0716 60.724C90.2512 60.8401 90.4613 60.9004 90.6754 60.8972L98.4216 61.5297C99.7842 61.6409 101.294 61.8239 102.184 62.8595C102.604 63.3483 102.941 64.0512 103.584 64.1037C103.86 64.1262 104.128 64.0132 104.404 63.9914C105.1 63.9364 105.712 64.4635 106.098 65.044C106.682 65.9289 106.947 66.9856 106.85 68.0406C106.786 68.7029 106.581 69.3467 106.536 70.0105C106.367 72.5362 108.514 74.7306 108.555 77.2615C108.58 78.7503 107.871 80.1412 107.181 81.4612C108.295 83.1458 107.382 85.3892 107.826 87.3586C108.247 89.2271 109.809 90.6899 110.198 92.5652C110.376 93.4237 110.386 94.4802 111.145 94.9224C111.478 95.0843 111.847 95.1581 112.217 95.1365C114.448 95.1629 116.653 94.6621 118.652 93.675C119.591 93.2105 120.563 92.517 120.727 91.4848C120.859 90.6525 120.436 89.7214 120.867 88.9963C121.374 88.1418 122.674 88.2096 123.421 87.5526C124.632 86.4867 123.688 84.454 124.178 82.9188C124.62 81.5388 126.138 80.8057 126.891 79.5672C127.187 79.0346 127.4 78.4597 127.522 77.8628C127.866 76.436 128.081 74.981 128.163 73.5156C128.183 72.6253 128.249 71.7366 128.36 70.8529C129.172 65.8224 134.157 62.4538 135.775 57.6211C135.93 57.1596 136.002 56.5448 135.591 56.2837C135.347 56.1675 135.07 56.1386 134.807 56.2018L131.236 56.6509C130.793 56.7067 130.323 56.7589 129.915 56.5751C129.508 56.3913 129.216 55.8772 129.432 55.4868C130.039 54.3909 128.791 53.0059 128.237 51.8828C126.744 48.8585 124.967 45.9826 122.928 43.2941C122.798 43.1557 122.716 42.9788 122.696 42.7899L123.709 42.8236C123.367 41.599 122.802 40.2588 121.61 39.8108C120.938 39.5584 120.193 39.6457 119.476 39.6848C117.423 39.7967 115.221 39.4874 113.188 39.1738Z" fill="#3F3D56"/>
<path id="europa" d="M119.478 11.5763C120.016 12.1456 120.618 12.7493 121.395 12.8485C122.769 13.0238 123.756 11.607 124.385 10.3763C124.408 10.69 124.553 10.9823 124.789 11.191C125.025 11.3997 125.333 11.5084 125.648 11.4938C125.987 11.4369 126.311 11.3107 126.599 11.1232C129.32 9.63964 132.368 8.85361 135.469 8.83567C135.439 8.60133 135.497 8.36429 135.632 8.17028C135.767 7.97628 135.97 7.83906 136.2 7.78511C136.831 7.66041 137.399 8.20421 137.703 8.76909C138.007 9.33397 138.196 9.98872 138.68 10.4115C139.163 10.8344 140.098 10.8159 140.289 10.2037C140.472 9.61583 139.859 9.11453 139.349 8.76797C138.839 8.42141 138.301 7.77997 138.645 7.26853C141.25 6.69317 143.871 6.11563 146.538 6.00127C146.991 6.01704 147.444 5.93931 147.866 5.77294C148.273 5.5739 148.596 5.12207 148.487 4.68362C147.905 4.82006 147.295 4.78055 146.736 4.57013C146.177 4.3597 145.693 3.9879 145.347 3.50214C149.046 3.19759 152.981 2.93801 156.259 4.67455C156.652 5.5171 154.647 6.2181 155.184 6.97804C155.355 7.22041 155.698 7.24884 155.995 7.25434C158.273 7.29653 160.564 7.33791 162.817 6.99477C163.64 6.86938 164.472 6.69236 165.298 6.79404C166.674 6.96341 167.852 7.87969 169.206 8.17844C169.757 8.30003 170.375 8.30415 170.84 7.98432C171.305 7.66449 171.504 6.93623 171.124 6.52045C172.399 5.27373 174.515 5.58272 176.197 6.17959C177.879 6.77646 179.473 7.73901 181.253 7.87206C182.53 7.96746 183.824 7.62487 185.086 7.84262C185.878 7.97947 186.616 8.3313 187.391 8.54746C188.856 8.95629 190.407 8.86999 191.928 8.88966C195.81 8.94184 199.65 9.703 203.257 11.1355C203.726 11.2879 204.156 11.5413 204.516 11.8778C204.852 12.2363 205.023 12.7935 204.798 13.2295L201.07 12.6861C201.421 13.3759 202.33 13.4934 203.068 13.7313C203.806 13.9693 204.571 14.7821 204.127 15.4168C203.328 15.1628 202.603 15.9602 202.199 16.6939C201.796 17.4276 201.304 18.3062 200.466 18.3509C199.715 18.3909 198.808 17.7536 198.319 18.3226C198.995 19.1729 199.573 20.0956 200.044 21.0737C200.527 22.0778 200.871 23.343 200.218 24.2464C200.116 24.4077 199.96 24.5283 199.778 24.5874C199.244 24.7221 198.898 24.0712 198.515 23.6767C198.033 23.1796 197.305 23.0388 196.652 22.8057C195.999 22.5725 195.312 22.1139 195.261 21.4242C195.229 20.9951 195.456 20.5962 195.623 20.1996C195.904 19.5311 196.027 18.807 195.983 18.0834C195.946 17.5013 195.782 16.8958 195.363 16.489C194.944 16.0823 194.221 15.9533 193.771 16.3258C193.561 16.4996 193.393 16.7777 193.12 16.7881C192.639 16.8064 192.269 15.9687 191.881 16.2547C191.927 16.5594 191.863 16.8703 191.702 17.1332C190.546 18.1365 188.77 17.712 187.279 18.0664C186.57 18.2688 185.891 18.5645 185.261 18.9457C185.025 19.0464 184.824 19.2144 184.684 19.4288C184.498 19.7896 184.703 20.2516 185.031 20.4915C185.379 20.7043 185.769 20.8374 186.175 20.8812C187.993 21.2245 189.837 21.7561 191.271 22.9207C192.706 24.0853 193.647 26.0104 193.193 27.7993L189.609 24.3828C189.745 25.8173 189.822 27.2558 189.841 28.6982C189.864 28.9798 189.825 29.2631 189.727 29.5283C189.472 30.0913 188.779 30.2807 188.172 30.405C188.004 30.437 187.844 30.5042 187.703 30.6023C187.562 30.7004 187.443 30.8272 187.355 30.9742C187.267 31.1212 187.211 31.2852 187.19 31.4554C187.17 31.6256 187.186 31.7982 187.237 31.9617C187.453 32.6628 187.991 33.2094 188.483 33.7541C188.975 34.2987 189.46 34.9178 189.524 35.6483C189.588 36.3788 189.036 37.2022 188.303 37.1514C187.747 37.1129 187.334 36.6164 187.097 36.1133C186.86 35.6103 186.719 35.0498 186.363 34.6224C185.284 33.3285 182.862 33.8828 181.896 32.5035C181.65 32.7822 181.479 33.119 181.4 33.482C181.321 33.845 181.336 34.2222 181.444 34.5776C181.894 34.297 182.509 34.5578 182.847 34.9656C183.184 35.3734 183.344 35.8963 183.609 36.3543C183.967 36.9724 184.536 37.5204 184.586 38.2324C184.573 38.5016 184.577 38.7715 184.6 39.0401C184.688 39.4715 185.054 39.7813 185.307 40.1419C185.897 40.981 185.868 42.1337 185.488 43.0858C185.108 44.0378 184.425 44.8334 183.749 45.6046C182.567 46.9518 181.362 48.291 179.961 49.4098C179.562 49.729 179.135 50.0429 178.886 50.4892C178.637 50.9355 178.625 51.5619 179.007 51.9014C178.733 51.9151 178.243 52.0494 177.969 52.0631C177.873 50.9678 177.852 49.8673 177.906 48.7692C176.826 48.2519 175.663 49.6373 175.803 50.8244C175.942 52.0115 176.803 52.9641 177.416 53.9911C177.864 54.7422 178.197 55.6179 178.047 56.4791C177.897 57.3403 177.127 58.1347 176.254 58.0588C174.866 57.938 174.285 55.9497 172.91 55.7222C172.789 55.6938 172.662 55.7064 172.549 55.758C172.345 55.8697 172.309 56.1421 172.298 56.3741C172.241 57.5125 172.193 58.6961 172.638 59.7457C173.29 61.2812 174.973 62.5708 174.62 64.2006C172.718 63.3184 171.729 61.1901 171.28 59.1456C170.831 57.1012 170.756 54.955 169.951 53.0223C169.339 53.804 168.054 53.1578 167.496 52.3378C166.966 51.5604 166.64 50.6611 166.127 49.8732C165.613 49.0854 164.826 48.3799 163.885 48.3366C162.898 48.2911 162.042 48.9667 161.29 49.6049C160.671 50.1298 160.036 50.6753 159.674 51.4008C159.148 52.4566 159.285 53.7013 159.26 54.8801C159.232 56.1546 158.962 57.4993 158.091 58.4324C157.22 59.3654 155.613 59.6904 154.653 58.8495C154.151 58.4105 153.909 57.7546 153.692 57.125C152.65 54.0901 151.782 50.9984 151.092 47.865C150.931 48.5802 150.301 49.502 149.7 49.0807C149.565 48.9674 149.456 48.8269 149.379 48.6684C148.258 46.7717 146.18 45.634 144.081 44.9519C141.983 44.2698 139.774 43.9516 137.699 43.2019C136.535 42.7816 135.425 42.2296 134.388 41.5565C134.123 41.944 133.969 42.3955 133.941 42.8634C133.913 43.3312 134.012 43.7979 134.228 44.214C134.689 45.0273 135.731 45.4978 136.623 45.2136C137.083 45.0666 137.473 44.7475 137.93 44.5898C138.387 44.4322 139.001 44.5096 139.201 44.9491C139.392 45.3698 139.103 45.8788 139.247 46.3181C139.465 46.9871 140.477 47.0386 140.83 47.6475C141.094 48.1004 140.877 48.702 140.501 49.0675C140.126 49.433 139.624 49.6335 139.166 49.8879C137.677 50.7135 136.619 52.1229 135.318 53.2194C134.018 54.3159 132.183 55.1164 130.633 54.4131C131.002 52.5466 128.774 51.1763 128.364 49.3183C128.229 48.7067 128.299 48.0571 128.106 47.4611C127.827 46.5982 127.06 46.005 126.43 45.3511C125.667 44.5494 125.072 43.6032 124.681 42.5684C124.29 41.5336 124.111 40.4312 124.154 39.3261C124.188 38.5582 124.329 37.7778 124.154 37.0293C123.978 36.2809 123.357 35.5564 122.587 35.5903C120.829 35.6678 118.615 35.7983 117.692 34.3032C117.363 33.7696 117.22 32.988 117.696 32.5792C118.031 32.2908 118.527 32.318 118.968 32.3613L122.929 32.75C123.856 32.8409 124.857 32.916 125.652 32.4328C126.447 31.9496 126.791 30.667 126.055 30.0985C125.517 29.6832 124.554 29.7057 124.397 29.0453C124.267 28.4953 124.877 27.8712 124.548 27.4116C124.312 27.082 123.78 27.1734 123.458 27.4205C123.136 27.6676 122.903 28.0289 122.542 28.216C121.91 28.5441 121.155 28.2318 120.475 28.0196C119.795 27.8073 118.883 27.7893 118.554 28.4194C118.185 29.124 118.881 30.0474 118.515 30.7536C118.031 31.6871 116.392 31.1557 115.712 31.9587C114.932 32.8802 116.243 34.2542 115.98 35.4314C115.644 35.5974 115.271 35.6736 114.896 35.6526C114.522 35.6316 114.16 35.5142 113.845 35.3118C113.535 35.1015 113.288 34.8113 113.13 34.4722C112.972 34.133 112.91 33.7575 112.949 33.3856C113.014 32.8561 113.29 32.3155 113.105 31.8151C112.955 31.4105 112.548 31.1696 112.169 30.961L108.32 28.8389C107.963 29.5003 108.415 30.3202 108.98 30.817C109.545 31.3138 110.252 31.6879 110.624 32.3417C110.858 32.7946 110.911 33.3199 110.771 33.8103C110.631 34.3007 110.308 34.7191 109.869 34.9802C109.814 35.0181 109.751 35.0436 109.685 35.0551C109.619 35.0665 109.552 35.0636 109.487 35.0466C109.426 35.0106 109.372 34.9626 109.33 34.9056C109.287 34.8486 109.257 34.7836 109.24 34.7146C108.561 32.9807 107.541 31.2711 105.911 30.3653C104.28 29.4596 101.938 29.6458 100.869 31.1716C100.615 31.534 100.444 31.9471 100.223 32.3303C99.0481 34.366 96.5286 35.33 94.1747 35.267C93.9445 35.2797 93.7154 35.226 93.5149 35.1123C93.1345 34.8502 93.1516 34.294 93.2098 33.8364L93.4569 31.8946C93.5065 31.5046 93.5784 31.0736 93.8878 30.8302C94.3239 30.4871 94.9529 30.7036 95.5083 30.6957C95.929 30.676 96.3335 30.5278 96.6669 30.2711C97.0004 30.0143 97.2466 29.6615 97.3723 29.2605C97.4845 28.8555 97.4838 28.4276 97.3702 28.023C97.2567 27.6184 97.0346 27.2523 96.728 26.9643C96.4734 26.7258 96.1318 26.4262 96.2662 26.1047C96.3199 26.0158 96.3924 25.9396 96.4787 25.8817C96.565 25.8237 96.663 25.7853 96.7658 25.7691C97.7633 25.4802 98.8173 25.4044 99.7982 25.0634C100.779 24.7224 101.73 24.0248 101.963 23.0147C102.034 22.7052 102.066 22.3303 102.345 22.1768C102.485 22.1179 102.635 22.0873 102.787 22.0868C103.319 22.0113 103.803 21.7399 104.144 21.3261C104.485 20.9123 104.659 20.386 104.631 19.8509C105.101 19.5232 105.759 19.7643 106.214 20.1128C106.669 20.4614 107.071 20.9219 107.624 21.0721C108.655 21.3521 109.652 20.4412 110.72 20.437C111.17 20.4352 111.635 20.5937 112.058 20.4417C112.487 20.2876 112.743 19.8619 113.072 19.5475C113.401 19.233 113.978 19.0412 114.282 19.3799L114.023 17.4684C114.544 17.5997 115.087 17.6183 115.616 17.5229C116.144 17.4275 116.647 17.2204 117.089 16.9155L113.745 15.7885C113.629 15.7595 113.521 15.7022 113.433 15.6218C113.19 15.3606 113.431 14.9538 113.629 14.6569C114.101 13.9469 114.181 12.7773 113.403 12.4237C112.873 12.1825 112.263 12.4721 111.754 12.7555L109.314 14.1128C109.236 14.5755 109.804 14.8378 110.155 15.1495C110.368 15.338 110.518 15.5864 110.587 15.8619C110.655 16.1373 110.639 16.4271 110.539 16.693C110.44 16.9589 110.262 17.1886 110.029 17.3519C109.797 17.5152 109.52 17.6044 109.235 17.6079C109.396 17.8163 109.508 18.0581 109.562 18.3154C109.616 18.5727 109.612 18.8389 109.549 19.0942L107.907 19.212C107.723 19.249 107.532 19.2118 107.375 19.1084C107.199 18.9528 107.223 18.6801 107.182 18.4494C107.084 17.8925 106.538 17.5021 105.98 17.402C105.422 17.3019 104.851 17.4302 104.299 17.5569C104.064 17.6411 103.806 17.6352 103.576 17.5403C103.444 17.4546 103.343 17.3282 103.29 17.1803C103.048 16.5945 103.274 15.9059 103.663 15.4049C104.052 14.9039 104.585 14.5376 105.063 14.1205C106.207 13.1195 107.047 11.8193 107.489 10.3669C108.393 9.98913 109.328 9.47583 110.232 9.09804C111.626 8.39422 113.188 8.09218 114.744 8.22588L117.805 8.28421C118.711 8.30148 119.642 8.3236 120.48 8.66826C121.318 9.01292 122.054 9.75838 122.112 10.6608C122.129 10.7629 122.121 10.8678 122.086 10.9656C122.052 11.0634 121.993 11.1509 121.916 11.2199C121.797 11.2844 121.663 11.3145 121.529 11.3069C120.684 11.3366 120.323 11.5467 119.478 11.5763Z" fill="#3F3D56"/>
<path id="Vector_19" d="M95.0815 21.1462C95.2011 21.0333 95.2872 20.8897 95.3302 20.7311C95.3733 20.5726 95.3718 20.4053 95.3257 20.2476C95.0348 20.1355 94.7182 20.1068 94.4117 20.1645C94.1052 20.2223 93.821 20.3642 93.591 20.5744C93.4097 20.7573 93.2534 20.9634 93.1263 21.1873C92.7241 21.8419 92.3683 22.6239 92.6014 23.3557C92.6204 23.4355 92.6552 23.5107 92.7037 23.5769C92.7522 23.6431 92.8135 23.699 92.884 23.7412C92.9884 23.7831 93.1011 23.8007 93.2134 23.7927C93.6564 23.7921 94.0991 23.7649 94.5389 23.7113C94.809 23.6784 95.1227 23.6023 95.227 23.3516C95.3643 23.0221 95.0322 22.6491 95.129 22.3056C95.1927 22.152 95.2892 22.0141 95.4118 21.9015C95.4726 21.8449 95.5194 21.7748 95.5483 21.697C95.5773 21.6191 95.5877 21.5356 95.5786 21.4531C95.5395 21.2919 95.2922 21.2004 95.2031 21.3405" fill="#3F3D56"/>
<path id="Vector_20" d="M97.3791 18.1745C96.9855 18.0844 96.5797 18.0589 96.1779 18.0993C96.089 18.0966 96.001 18.1166 95.922 18.1573C95.8454 18.2136 95.7899 18.2938 95.7642 18.3852C95.6794 18.6569 95.7002 18.9506 95.8227 19.2077C95.9451 19.4648 96.1601 19.6664 96.4249 19.7725C96.5692 19.8056 96.7074 19.861 96.8346 19.9367C97.1743 20.1997 96.9577 20.7371 97.022 21.1613C97.0942 21.6376 97.5563 22.0373 97.4716 22.5116C97.4049 22.8852 97.0049 23.181 97.0693 23.555C97.1367 23.9467 97.635 24.0645 98.0322 24.0958C98.2624 24.136 98.4993 24.1089 98.7144 24.0178C98.93 23.8708 99.0833 23.6492 99.1448 23.396C99.3074 22.9131 99.3757 22.4037 99.3461 21.8952C99.3443 21.6639 99.2861 21.4365 99.1764 21.2328C99.0568 21.0713 98.9243 20.9199 98.78 20.7799C98.0191 19.8969 98.8203 18.5797 97.3791 18.1745Z" fill="#3F3D56"/>
<path id="Vector_21" opacity="0.8" d="M197.442 87.3486C197.442 87.3486 139.161 53.9736 114.07 60.2973C114.07 60.2973 60.8958 66.0062 54.7331 78.5657C54.7331 78.5657 37.8299 25.8684 31.6673 24.1118" stroke="#6C63FF" stroke-width="2" stroke-miterlimit="10"/>
<path id="Vector_22" opacity="0.8" d="M54.7331 78.5657C64.5053 52.5684 152.543 23.7605 152.543 23.7605C140.041 26.9223 114.07 60.2973 114.07 60.2973C114.07 60.2973 59.135 20.423 31.6673 24.1118C31.6673 24.1118 152.631 28.0641 197.442 87.3486" stroke="#6C63FF" stroke-width="2" stroke-miterlimit="10"/>
<path id="Vector_23" d="M31.6673 26.6588C33.0773 26.6588 34.2204 25.5185 34.2204 24.1118C34.2204 22.7051 33.0773 21.5648 31.6673 21.5648C30.2573 21.5648 29.1142 22.7051 29.1142 24.1118C29.1142 25.5185 30.2573 26.6588 31.6673 26.6588Z" fill="#6C63FF"/>
<path id="Vector_24" d="M54.7331 81.1127C56.1432 81.1127 57.2862 79.9724 57.2862 78.5657C57.2862 77.159 56.1432 76.0186 54.7331 76.0186C53.3231 76.0186 52.1801 77.159 52.1801 78.5657C52.1801 79.9724 53.3231 81.1127 54.7331 81.1127Z" fill="#6C63FF"/>
<path id="Vector_25" d="M152.543 26.3075C153.953 26.3075 155.096 25.1672 155.096 23.7605C155.096 22.3538 153.953 21.2134 152.543 21.2134C151.133 21.2134 149.99 22.3538 149.99 23.7605C149.99 25.1672 151.133 26.3075 152.543 26.3075Z" fill="#6C63FF"/>
<path id="Vector_26" d="M197.442 89.8956C198.852 89.8956 199.995 88.7552 199.995 87.3485C199.995 85.9419 198.852 84.8015 197.442 84.8015C196.032 84.8015 194.889 85.9419 194.889 87.3485C194.889 88.7552 196.032 89.8956 197.442 89.8956Z" fill="#6C63FF"/>
<path id="Vector_27" d="M114.07 62.8443C115.48 62.8443 116.623 61.704 116.623 60.2973C116.623 58.8906 115.48 57.7502 114.07 57.7502C112.66 57.7502 111.517 58.8906 111.517 60.2973C111.517 61.704 112.66 62.8443 114.07 62.8443Z" fill="#6C63FF"/>
</g>
</svg>
