<svg width="18" height="18" viewBox="0 0 18 18" fill="none" xmlns="http://www.w3.org/2000/svg">
<path fill-rule="evenodd" clip-rule="evenodd" d="M12 4C12 5.65685 10.6569 7 9 7C7.34315 7 6 5.65685 6 4C6 2.34315 7.34315 1 9 1C10.6569 1 12 2.34315 12 4ZM13 4C13 6.20914 11.2091 8 9 8C6.79086 8 5 6.20914 5 4C5 1.79086 6.79086 0 9 0C11.2091 0 13 1.79086 13 4ZM16.391 14.9385C16.6649 15.5996 16.8482 16.293 16.9373 17H9H1.06275C1.15182 16.293 1.33513 15.5996 1.60896 14.9385C2.011 13.9679 2.60028 13.086 3.34315 12.3431C4.08601 11.6003 4.96793 11.011 5.93853 10.609C6.90914 10.2069 7.94942 10 9 10C10.0506 10 11.0909 10.2069 12.0615 10.609C13.0321 11.011 13.914 11.6003 14.6569 12.3431C15.3997 13.086 15.989 13.9679 16.391 14.9385ZM17.3149 14.5558C17.6391 15.3385 17.8505 16.1614 17.9443 17C17.9813 17.3314 18 17.6652 18 18H17H9H1H0C0 17.6652 0.0186765 17.3314 0.0557275 17C0.149485 16.1614 0.360902 15.3385 0.685084 14.5558C1.13738 13.4639 1.80031 12.4718 2.63604 11.636C3.47177 10.8003 4.46392 10.1374 5.55585 9.68508C6.64778 9.23279 7.8181 9 9 9C10.1819 9 11.3522 9.23279 12.4442 9.68508C13.5361 10.1374 14.5282 10.8003 15.364 11.636C16.1997 12.4718 16.8626 13.4639 17.3149 14.5558Z" fill="#251E8F"/>
</svg>
