<svg width="15" height="15" viewBox="0 0 15 15" fill="none" xmlns="http://www.w3.org/2000/svg">
<path fill-rule="evenodd" clip-rule="evenodd" d="M5.10421 9.20842C7.37091 9.20842 9.20842 7.37091 9.20842 5.10421C9.20842 2.83752 7.37091 1 5.10421 1C2.83752 1 1 2.83752 1 5.10421C1 7.37091 2.83752 9.20842 5.10421 9.20842ZM5.10421 10.2084C6.33364 10.2084 7.46155 9.77376 8.34264 9.04972L8.37963 9.08671L13.0912 13.7983L13.4448 14.1518L14.1519 13.4447L13.7983 13.0912L9.08673 8.3796L9.04975 8.34262C9.77377 7.46153 10.2084 6.33363 10.2084 5.10421C10.2084 2.28523 7.92319 0 5.10421 0C2.28523 0 0 2.28523 0 5.10421C0 7.28614 1.36908 9.1483 3.29505 9.87852V10.1273C3.33939 10.1273 3.38955 10.1191 3.44555 10.1028C3.50155 10.0865 3.55755 10.0655 3.61355 10.0398C3.63683 10.0291 3.65909 10.0183 3.68035 10.0072C3.74047 10.0246 3.80104 10.041 3.86205 10.0562V10.9323H3.36505V11.3558H4.78605V10.9323H4.34155V10.1518C4.59035 10.1891 4.84503 10.2084 5.10421 10.2084ZM4.99955 4.87979C5.07889 4.71879 5.11855 4.53562 5.11855 4.33029C5.11855 4.12496 5.07889 3.94296 4.99955 3.78429C4.92255 3.62329 4.81522 3.49729 4.67755 3.40629C4.54222 3.31296 4.38822 3.26629 4.21555 3.26629C4.04289 3.26629 3.88772 3.31296 3.75005 3.40629C3.61472 3.49729 3.50739 3.62329 3.42805 3.78429C3.35105 3.94296 3.31255 4.12496 3.31255 4.33029C3.31255 4.53562 3.35105 4.71879 3.42805 4.87979C3.50739 5.03846 3.61472 5.16329 3.75005 5.25429C3.88772 5.34529 4.04289 5.39079 4.21555 5.39079C4.38822 5.39079 4.54222 5.34529 4.67755 5.25429C4.81522 5.16329 4.92255 5.03846 4.99955 4.87979ZM4.59005 4.00129C4.62739 4.09462 4.64605 4.20429 4.64605 4.33029C4.64605 4.45396 4.62739 4.56362 4.59005 4.65929C4.55272 4.75262 4.50139 4.82612 4.43605 4.87979C4.37305 4.93346 4.29955 4.96029 4.21555 4.96029C4.12922 4.96029 4.05339 4.93346 3.98805 4.87979C3.92272 4.82612 3.87139 4.75262 3.83405 4.65929C3.79905 4.56596 3.78155 4.45629 3.78155 4.33029C3.78155 4.20429 3.79905 4.09462 3.83405 4.00129C3.87139 3.90562 3.92272 3.83096 3.98805 3.77729C4.05339 3.72362 4.12922 3.69679 4.21555 3.69679C4.29955 3.69679 4.37422 3.72362 4.43955 3.77729C4.50489 3.83096 4.55505 3.90562 4.59005 4.00129ZM4.78605 8.35579V7.93229H4.34155V6.35729H3.86205C3.85039 6.37829 3.82239 6.40746 3.77805 6.44479C3.73605 6.47979 3.68472 6.51596 3.62405 6.55329C3.56572 6.59062 3.50622 6.62329 3.44555 6.65129C3.38722 6.67696 3.33705 6.68979 3.29505 6.68979V7.12729C3.33939 7.12729 3.38955 7.11912 3.44555 7.10279C3.50155 7.08646 3.55755 7.06546 3.61355 7.03979C3.66955 7.01412 3.71972 6.98729 3.76405 6.95929C3.80839 6.92896 3.84105 6.89979 3.86205 6.87179V7.93229H3.36505V8.35579H4.78605ZM4.99955 13.8798C5.07889 13.7188 5.11855 13.5356 5.11855 13.3303C5.11855 13.125 5.07889 12.943 4.99955 12.7843C4.92255 12.6233 4.81522 12.4973 4.67755 12.4063C4.54222 12.313 4.38822 12.2663 4.21555 12.2663C4.04289 12.2663 3.88772 12.313 3.75005 12.4063C3.61472 12.4973 3.50739 12.6233 3.42805 12.7843C3.35105 12.943 3.31255 13.125 3.31255 13.3303C3.31255 13.5356 3.35105 13.7188 3.42805 13.8798C3.50739 14.0385 3.61472 14.1633 3.75005 14.2543C3.88772 14.3453 4.04289 14.3908 4.21555 14.3908C4.38822 14.3908 4.54222 14.3453 4.67755 14.2543C4.81522 14.1633 4.92255 14.0385 4.99955 13.8798ZM4.59005 13.0013C4.62739 13.0946 4.64605 13.2043 4.64605 13.3303C4.64605 13.454 4.62739 13.5636 4.59005 13.6593C4.55272 13.7526 4.50139 13.8261 4.43605 13.8798C4.37305 13.9335 4.29955 13.9603 4.21555 13.9603C4.12922 13.9603 4.05339 13.9335 3.98805 13.8798C3.92272 13.8261 3.87139 13.7526 3.83405 13.6593C3.79905 13.566 3.78155 13.4563 3.78155 13.3303C3.78155 13.2043 3.79905 13.0946 3.83405 13.0013C3.87139 12.9056 3.92272 12.831 3.98805 12.7773C4.05339 12.7236 4.12922 12.6968 4.21555 12.6968C4.29955 12.6968 4.37422 12.7236 4.43955 12.7773C4.50489 12.831 4.55505 12.9056 4.59005 13.0013Z" fill="#251E8F"/>
</svg>
