<svg width="211" height="158" viewBox="0 0 211 158" fill="none" xmlns="http://www.w3.org/2000/svg">
<g id="Group 2362">
<path id="Vector" d="M201.275 157.025H9.72486C7.14656 157.022 4.6747 156.01 2.85156 154.211C1.02843 152.412 0.00291244 149.973 0 147.429V9.59595C0.002914 7.05183 1.02843 4.61273 2.85156 2.81376C4.6747 1.0148 7.14656 0.00287537 9.72486 0H201.275C203.853 0.00287384 206.325 1.0148 208.148 2.81376C209.972 4.61273 210.997 7.05183 211 9.59595V147.429C210.997 149.973 209.972 152.412 208.148 154.211C206.325 156.01 203.853 157.022 201.275 157.025Z" fill="#E6EDFF"/>
<path id="Vector_2" d="M188 157.025H186.686L166.391 116.525L165.802 115.358L150.793 85.4004L125.36 34.6447L124.777 33.4772L108 0H109.32L126.091 33.4772L126.68 34.6447L151.465 84.1104L152.048 85.2778L167.051 115.212L188 157.025Z" fill="white"/>
<path id="Vector_3" d="M211 34.1358H0V35.1111H211V34.1358Z" fill="white"/>
<path id="Vector_4" d="M211 83.8766H151V84.8519H211V83.8766Z" fill="white"/>
<path id="Vector_5" d="M57 0H56V158H57V0Z" fill="white"/>
<path id="Vector_6" d="M167 115.086H57V117.037H167V115.086Z" fill="white"/>
</g>
</svg>
