<svg width="4" height="16" viewBox="0 0 4 16" fill="none" xmlns="http://www.w3.org/2000/svg">
<path d="M2.05005 13C2.7404 13 3.30005 13.5596 3.30005 14.25C3.30005 14.9404 2.7404 15.5 2.05005 15.5C1.35969 15.5 0.800049 14.9404 0.800049 14.25C0.800049 13.5596 1.35969 13 2.05005 13Z" fill="#251E8F"/>
<path d="M2.05005 6.65942C2.7404 6.65942 3.30005 7.21907 3.30005 7.90942C3.30005 8.59978 2.7404 9.15942 2.05005 9.15942C1.35969 9.15942 0.800049 8.59978 0.800049 7.90942C0.800049 7.21907 1.35969 6.65942 2.05005 6.65942Z" fill="#251E8F"/>
<path d="M2.05005 0.318848C2.7404 0.318848 3.30005 0.878492 3.30005 1.56885C3.30005 2.2592 2.7404 2.81885 2.05005 2.81885C1.35969 2.81885 0.800049 2.2592 0.800049 1.56885C0.800049 0.878492 1.35969 0.318848 2.05005 0.318848Z" fill="#251E8F"/>
</svg>
