<svg width="27" height="54" viewBox="0 0 27 54" fill="none" xmlns="http://www.w3.org/2000/svg">
<path d="M27 13.3206C27 19.2958 18.0943 36.1458 14.7494 42.2636C14.628 42.4862 14.4477 42.6722 14.2277 42.8019C14.0077 42.9315 13.7562 43 13.5 43C13.2438 43 12.9923 42.9315 12.7723 42.8019C12.5523 42.6722 12.372 42.4862 12.2506 42.2636C8.90573 36.1458 0 19.2958 0 13.3206C0 9.78776 1.42232 6.39961 3.95406 3.90151C6.4858 1.40342 9.91958 0 13.5 0C17.0804 0 20.5142 1.40342 23.0459 3.90151C25.5777 6.39961 27 9.78776 27 13.3206V13.3206Z" fill="#6C63FF"/>
<path d="M13.5 19C16.5376 19 19 16.3137 19 13C19 9.68629 16.5376 7 13.5 7C10.4624 7 8 9.68629 8 13C8 16.3137 10.4624 19 13.5 19Z" fill="#E6E6E6"/>
<path d="M14 53.8025C16.2091 53.8025 18 52.0558 18 49.9012C18 47.7466 16.2091 46 14 46C11.7909 46 10 47.7466 10 49.9012C10 52.0558 11.7909 53.8025 14 53.8025Z" fill="#6C63FF"/>
</svg>
