<svg width="18" height="19" viewBox="0 0 18 19" fill="none" xmlns="http://www.w3.org/2000/svg">
<path fill-rule="evenodd" clip-rule="evenodd" d="M7.87585 0C7.11153 0 6.46943 0.574704 6.38502 1.33435L6.12677 3.65859C5.85668 3.79078 5.59717 3.94111 5.34982 4.10798L3.20704 3.16916C2.50696 2.86243 1.68821 3.13116 1.30604 3.79308L0.201086 5.70692C-0.181075 6.36884 -0.00441576 7.21227 0.611257 7.66519L2.49604 9.05174C2.48594 9.19992 2.48081 9.34939 2.48081 9.5C2.48081 9.65061 2.48594 9.80008 2.49604 9.94826L0.611257 11.3348C-0.00441606 11.7877 -0.181074 12.6312 0.201087 13.2931L1.30604 15.2069C1.68821 15.8688 2.50696 16.1376 3.20704 15.8308L5.34982 14.892C5.59717 15.0589 5.85668 15.2092 6.12677 15.3414L6.38502 17.6656C6.46943 18.4253 7.11153 19 7.87585 19H10.0858C10.8501 19 11.4922 18.4253 11.5766 17.6656L11.8348 15.3414C12.1049 15.2092 12.3644 15.0589 12.6118 14.892L14.7546 15.8308C15.4547 16.1376 16.2734 15.8688 16.6556 15.2069L17.7605 13.2931C18.1427 12.6312 17.966 11.7877 17.3504 11.3348L15.4656 9.94826C15.4757 9.80008 15.4808 9.65061 15.4808 9.5C15.4808 9.34939 15.4757 9.19992 15.4656 9.05174L17.3504 7.66519C17.966 7.21227 18.1427 6.36884 17.7605 5.70692L16.6556 3.79308C16.2734 3.13115 15.4547 2.86244 14.7546 3.16916L12.6118 4.10798C12.3644 3.94111 12.1049 3.79078 11.8348 3.65859L11.5766 1.33435L11.0796 1.38957L11.5766 1.33435C11.4922 0.574702 10.8501 0 10.0858 0H7.87585ZM7.37891 1.44478C7.40704 1.19157 7.62107 1 7.87585 1H10.0858C10.3405 1 10.5546 1.19157 10.5827 1.44478L10.8721 4.04934L10.9041 4.3373L11.1698 4.45273C11.5568 4.6208 11.9208 4.83216 12.2557 5.08079L12.4886 5.25372L12.7544 5.13729L15.1559 4.08511C15.3892 3.98286 15.6622 4.07244 15.7895 4.29308L16.8945 6.20692C17.0219 6.42756 16.963 6.7087 16.7578 6.85968L14.646 8.41325L14.4128 8.58477L14.4454 8.87238C14.4688 9.07818 14.4808 9.28759 14.4808 9.5C14.4808 9.71241 14.4688 9.92182 14.4454 10.1276L14.4128 10.4152L14.646 10.5868L16.7578 12.1403C16.963 12.2913 17.0219 12.5724 16.8945 12.7931L15.7895 14.7069C15.6622 14.9276 15.3892 15.0171 15.1559 14.9149L12.7544 13.8627L12.4886 13.7463L12.2557 13.9192C11.9208 14.1678 11.5568 14.3792 11.1698 14.5473L10.9041 14.6627L10.8721 14.9507L10.5827 17.5552C10.5546 17.8084 10.3405 18 10.0858 18H7.87585C7.62107 18 7.40704 17.8084 7.37891 17.5552L7.08951 14.9507L7.05752 14.6627L6.79177 14.5473C6.40484 14.3792 6.04086 14.1678 5.70595 13.9192L5.473 13.7463L5.20726 13.8627L2.80574 14.9149C2.57238 15.0171 2.29946 14.9276 2.17207 14.7069L1.06711 12.7931C0.939725 12.5724 0.998612 12.2913 1.20384 12.1403L3.31566 10.5868L3.54882 10.4152L3.51618 10.1276C3.49282 9.92182 3.48081 9.71241 3.48081 9.5C3.48081 9.28759 3.49282 9.07818 3.51618 8.87238L3.54882 8.58477L3.31566 8.41325L1.20384 6.85968C0.998611 6.7087 0.939724 6.42756 1.06711 6.20692L2.17207 4.29308C2.29946 4.07244 2.57237 3.98286 2.80573 4.08511L5.20726 5.13729L5.473 5.25372L5.70595 5.08078C6.04086 4.83216 6.40484 4.6208 6.79177 4.45273L7.05752 4.3373L7.08951 4.04934L7.37891 1.44478ZM8.98078 10.5C9.53307 10.5 9.98078 10.0523 9.98078 9.5C9.98078 8.94771 9.53307 8.5 8.98078 8.5C8.4285 8.5 7.98078 8.94771 7.98078 9.5C7.98078 10.0523 8.4285 10.5 8.98078 10.5Z" fill="#251E8F"/>
</svg>
