<svg width="281" height="88" viewBox="0 0 281 88" fill="none" xmlns="http://www.w3.org/2000/svg">
<g id="Group 2381">
<path id="Vector" d="M92.0628 54.0049C85.2467 53.8449 77.9396 57.5902 76 64L113 62.5229C112.3 62.0486 111.597 61.5802 110.891 61.1177C105.214 57.4149 98.8788 54.1649 92.0628 54.0049Z" fill="#F2F2F2"/>
<path id="Vector_2" d="M113 62.4292C117.958 65.7753 122.797 69.3464 128.322 71.6693C142.002 77.4212 157.75 74.7387 172.145 71.0002C186.539 67.2617 201.232 62.5116 215.996 64.4385C224.368 65.5311 232.271 68.7288 240.352 71.1278C248.433 73.5268 257.127 75.1333 265.28 72.9794C273.433 70.8255 280.787 63.9954 281 55.7522C219.45 44.642 162.387 44.3121 113 62.4292Z" fill="#F2F2F2"/>
<path id="Vector_3" d="M16.0628 66.0049C9.24668 65.8449 1.93955 69.5902 0 76L37 74.5229C36.3003 74.0486 35.5974 73.5802 34.8913 73.1177C29.2143 69.4149 22.8788 66.1649 16.0628 66.0049Z" fill="#F2F2F2"/>
<path id="Vector_4" d="M37 74.9636C41.9584 78.4337 46.7973 82.137 52.3221 84.546C66.0022 90.5109 81.7504 87.729 96.1446 83.8521C110.539 79.9751 125.232 75.0491 139.996 77.0473C148.368 78.1804 156.271 81.4965 164.352 83.9844C172.433 86.4723 181.127 88.1382 189.28 85.9045C197.433 83.6709 204.787 76.5879 205 68.0393C143.45 56.5176 86.3868 56.1755 37 74.9636Z" fill="#F2F2F2"/>
<g id="ship">
<path id="Vector_5" d="M119.911 17H81.0886C80.5348 17.0004 80.0037 17.2287 79.6121 17.6348C79.2205 18.0409 79.0004 18.5916 79 19.1659V33.8341C79.0004 34.4084 79.2205 34.9591 79.6121 35.3652C80.0037 35.7713 80.5348 35.9996 81.0886 36H119.911C120.465 35.9996 120.996 35.7713 121.388 35.3652C121.779 34.9591 122 34.4084 122 33.8341V19.1659C122 18.5916 121.779 18.0409 121.388 17.6348C120.996 17.2287 120.465 17.0004 119.911 17Z" fill="#E6E6E6"/>
<path id="Vector_6" d="M83 17H82V36H83V17Z" fill="#CCCCCC"/>
<path id="Vector_7" d="M87 17H86V36H87V17Z" fill="#CCCCCC"/>
<path id="Vector_8" d="M92 17H91V36H92V17Z" fill="#CCCCCC"/>
<path id="Vector_9" d="M96 17H95V36H96V17Z" fill="#CCCCCC"/>
<path id="Vector_10" d="M101 17H100V36H101V17Z" fill="#CCCCCC"/>
<path id="Vector_11" d="M105 17H104V36H105V17Z" fill="#CCCCCC"/>
<path id="Vector_12" d="M110 17H109V36H110V17Z" fill="#CCCCCC"/>
<path id="Vector_13" d="M114 17H113V36H114V17Z" fill="#CCCCCC"/>
<path id="Vector_14" d="M119 17H118V36H119V17Z" fill="#CCCCCC"/>
<path id="Vector_15" d="M213.96 17H176.04C175.499 17.0004 174.98 17.2287 174.598 17.6348C174.215 18.0409 174 18.5916 174 19.1659V33.8341C174 34.4084 174.215 34.9591 174.598 35.3652C174.98 35.7713 175.499 35.9996 176.04 36H213.96C214.501 35.9996 215.02 35.7713 215.402 35.3652C215.785 34.9591 216 34.4084 216 33.8341V19.1659C216 18.5916 215.785 18.0409 215.402 17.6348C215.02 17.2287 214.501 17.0004 213.96 17Z" fill="#E6E6E6"/>
<path id="Vector_16" d="M177 17H176V36H177V17Z" fill="#CCCCCC"/>
<path id="Vector_17" d="M182 17H181V36H182V17Z" fill="#CCCCCC"/>
<path id="Vector_18" d="M186 17H185V36H186V17Z" fill="#CCCCCC"/>
<path id="Vector_19" d="M191 17H190V36H191V17Z" fill="#CCCCCC"/>
<path id="Vector_20" d="M195 17H194V36H195V17Z" fill="#CCCCCC"/>
<path id="Vector_21" d="M200 17H199V36H200V17Z" fill="#CCCCCC"/>
<path id="Vector_22" d="M204 17H203V36H204V17Z" fill="#CCCCCC"/>
<path id="Vector_23" d="M209 17H208V36H209V17Z" fill="#CCCCCC"/>
<path id="Vector_24" d="M213 17H212V36H213V17Z" fill="#CCCCCC"/>
<path id="Vector_25" d="M170.96 17H133.04C132.499 17.0004 131.98 17.2287 131.598 17.6348C131.215 18.0409 131 18.5916 131 19.1659V33.8341C131 34.4084 131.215 34.9591 131.598 35.3652C131.98 35.7713 132.499 35.9996 133.04 36H170.96C171.501 35.9996 172.02 35.7713 172.402 35.3652C172.785 34.9591 173 34.4084 173 33.8341V19.1659C173 18.5916 172.785 18.0409 172.402 17.6348C172.02 17.2287 171.501 17.0004 170.96 17Z" fill="#E6E6E6"/>
<path id="Vector_26" d="M135 17H134V36H135V17Z" fill="#CCCCCC"/>
<path id="Vector_27" d="M139 17H138V36H139V17Z" fill="#CCCCCC"/>
<path id="Vector_28" d="M144 17H142V36H144V17Z" fill="#CCCCCC"/>
<path id="Vector_29" d="M148 17H147V36H148V17Z" fill="#CCCCCC"/>
<path id="Vector_30" d="M153 17H151V36H153V17Z" fill="#CCCCCC"/>
<path id="Vector_31" d="M157 17H156V36H157V17Z" fill="#CCCCCC"/>
<path id="Vector_32" d="M162 17H160V36H162V17Z" fill="#CCCCCC"/>
<path id="Vector_33" d="M166 17H165V36H166V17Z" fill="#CCCCCC"/>
<path id="Vector_34" d="M171 17H169V36H171V17Z" fill="#CCCCCC"/>
<path id="Vector_35" d="M213.911 0H175.089C174.535 0.000347546 174.004 0.216631 173.612 0.601358C173.221 0.986085 173 1.50779 173 2.05188V15.9481C173 16.4922 173.221 17.0139 173.612 17.3986C174.004 17.7834 174.535 17.9997 175.089 18H213.911C214.465 17.9997 214.996 17.7834 215.388 17.3986C215.779 17.0139 216 16.4922 216 15.9481V2.05188C216 1.50779 215.779 0.986085 215.388 0.601358C214.996 0.216631 214.465 0.000347546 213.911 0Z" fill="#E6E6E6"/>
<path id="Vector_36" d="M142.96 0H105.04C104.499 0.000366854 103.98 0.228666 103.598 0.634767C103.215 1.04087 103 1.59155 103 2.16587V16.8341C103 17.4084 103.215 17.9591 103.598 18.3652C103.98 18.7713 104.499 18.9996 105.04 19H142.96C143.501 18.9996 144.02 18.7713 144.402 18.3652C144.785 17.9591 145 17.4084 145 16.8341V2.16587C145 1.59155 144.785 1.04087 144.402 0.634767C144.02 0.228666 143.501 0.000366854 142.96 0Z" fill="#E6E6E6"/>
<path id="Vector_37" d="M177 0H176V18H177V0Z" fill="#CCCCCC"/>
<path id="Vector_38" d="M107 0H106V19H107V0Z" fill="#CCCCCC"/>
<path id="Vector_39" d="M182 0H181V18H182V0Z" fill="#CCCCCC"/>
<path id="Vector_40" d="M111 0H110V19H111V0Z" fill="#CCCCCC"/>
<path id="Vector_41" d="M186 0H185V18H186V0Z" fill="#CCCCCC"/>
<path id="Vector_42" d="M116 0H115V19H116V0Z" fill="#CCCCCC"/>
<path id="Vector_43" d="M191 0H190V18H191V0Z" fill="#CCCCCC"/>
<path id="Vector_44" d="M120 0H119V19H120V0Z" fill="#CCCCCC"/>
<path id="Vector_45" d="M195 0H194V18H195V0Z" fill="#CCCCCC"/>
<path id="Vector_46" d="M125 0H124V19H125V0Z" fill="#CCCCCC"/>
<path id="Vector_47" d="M200 0H199V18H200V0Z" fill="#CCCCCC"/>
<path id="Vector_48" d="M129 0H128V19H129V0Z" fill="#CCCCCC"/>
<path id="Vector_49" d="M204 0H203V18H204V0Z" fill="#CCCCCC"/>
<path id="Vector_50" d="M134 0H133V19H134V0Z" fill="#CCCCCC"/>
<path id="Vector_51" d="M209 0H208V18H209V0Z" fill="#CCCCCC"/>
<path id="Vector_52" d="M138 0H137V19H138V0Z" fill="#CCCCCC"/>
<path id="Vector_53" d="M213 0H212V18H213V0Z" fill="#CCCCCC"/>
<path id="Vector_54" d="M143 0H142V19H143V0Z" fill="#CCCCCC"/>
<path id="Vector_55" d="M205.911 19H167.089C166.535 19.0003 166.004 19.2166 165.612 19.6014C165.221 19.9861 165 20.5078 165 21.0519V34.9481C165 35.4922 165.221 36.0139 165.612 36.3986C166.004 36.7833 166.535 36.9997 167.089 37H205.911C206.465 36.9997 206.996 36.7833 207.388 36.3986C207.779 36.0139 208 35.4922 208 34.9481V21.0519C208 20.5078 207.779 19.9861 207.388 19.6014C206.996 19.2166 206.465 19.0003 205.911 19Z" fill="#6C63FF"/>
<path id="Vector_56" d="M169 19H168V37H169V19Z" fill="#3F3D56"/>
<path id="Vector_57" d="M173 19H172V37H173V19Z" fill="#3F3D56"/>
<path id="Vector_58" d="M178 19H177V37H178V19Z" fill="#3F3D56"/>
<path id="Vector_59" d="M182 19H181V37H182V19Z" fill="#3F3D56"/>
<path id="Vector_60" d="M187 19H186V37H187V19Z" fill="#3F3D56"/>
<path id="Vector_61" d="M191 19H190V37H191V19Z" fill="#3F3D56"/>
<path id="Vector_62" d="M196 19H195V37H196V19Z" fill="#3F3D56"/>
<path id="Vector_63" d="M200 19H199V37H200V19Z" fill="#3F3D56"/>
<path id="Vector_64" d="M205 19H204V37H205V19Z" fill="#3F3D56"/>
<path id="Vector_65" d="M156.96 19H119.04C118.499 19.0003 117.98 19.2166 117.598 19.6014C117.215 19.9861 117 20.5078 117 21.0519V34.9481C117 35.4922 117.215 36.0139 117.598 36.3986C117.98 36.7833 118.499 36.9997 119.04 37H156.96C157.501 36.9997 158.02 36.7833 158.402 36.3986C158.785 36.0139 159 35.4922 159 34.9481V21.0519C159 20.5078 158.785 19.9861 158.402 19.6014C158.02 19.2166 157.501 19.0003 156.96 19Z" fill="#6C63FF"/>
<path id="Vector_66" d="M121 19H119V37H121V19Z" fill="#3F3D56"/>
<path id="Vector_67" d="M125 19H124V37H125V19Z" fill="#3F3D56"/>
<path id="Vector_68" d="M130 19H128V37H130V19Z" fill="#3F3D56"/>
<path id="Vector_69" d="M134 19H133V37H134V19Z" fill="#3F3D56"/>
<path id="Vector_70" d="M139 19H137V37H139V19Z" fill="#3F3D56"/>
<path id="Vector_71" d="M143 19H142V37H143V19Z" fill="#3F3D56"/>
<path id="Vector_72" d="M148 19H146V37H148V19Z" fill="#3F3D56"/>
<path id="Vector_73" d="M152 19H151V37H152V19Z" fill="#3F3D56"/>
<path id="Vector_74" d="M157 19H155V37H157V19Z" fill="#3F3D56"/>
<path id="Vector_75" d="M166.96 0H129.04C128.499 0.000366854 127.98 0.228666 127.598 0.634767C127.215 1.04087 127 1.59155 127 2.16587V16.8341C127 17.4084 127.215 17.9591 127.598 18.3652C127.98 18.7713 128.499 18.9996 129.04 19H166.96C167.501 18.9996 168.02 18.7713 168.402 18.3652C168.785 17.9591 169 17.4084 169 16.8341V2.16587C169 1.59155 168.785 1.04087 168.402 0.634767C168.02 0.228666 167.501 0.000366854 166.96 0Z" fill="#6C63FF"/>
<path id="Vector_76" d="M131 0H129V19H131V0Z" fill="#3F3D56"/>
<path id="Vector_77" d="M135 0H134V19H135V0Z" fill="#3F3D56"/>
<path id="Vector_78" d="M140 0H138V19H140V0Z" fill="#3F3D56"/>
<path id="Vector_79" d="M144 0H143V19H144V0Z" fill="#3F3D56"/>
<path id="Vector_80" d="M149 0H147V19H149V0Z" fill="#3F3D56"/>
<path id="Vector_81" d="M153 0H152V19H153V0Z" fill="#3F3D56"/>
<path id="Vector_82" d="M158 0H156V19H158V0Z" fill="#3F3D56"/>
<path id="Vector_83" d="M162 0H161V19H162V0Z" fill="#3F3D56"/>
<path id="Vector_84" d="M167 0H165V19H167V0Z" fill="#3F3D56"/>
<path id="Vector_85" d="M105.911 19H67.0886C66.5348 19.0003 66.0037 19.2166 65.6121 19.6014C65.2205 19.9861 65.0004 20.5078 65 21.0519V34.9481C65.0004 35.4922 65.2205 36.0139 65.6121 36.3986C66.0037 36.7833 66.5348 36.9997 67.0886 37H105.911C106.465 36.9997 106.996 36.7833 107.388 36.3986C107.779 36.0139 108 35.4922 108 34.9481V21.0519C108 20.5078 107.779 19.9861 107.388 19.6014C106.996 19.2166 106.465 19.0003 105.911 19Z" fill="#6C63FF"/>
<path id="Vector_86" d="M69 19H68V37H69V19Z" fill="#3F3D56"/>
<path id="Vector_87" d="M73 19H72V37H73V19Z" fill="#3F3D56"/>
<path id="Vector_88" d="M78 19H77V37H78V19Z" fill="#3F3D56"/>
<path id="Vector_89" d="M82 19H81V37H82V19Z" fill="#3F3D56"/>
<path id="Vector_90" d="M87 19H86V37H87V19Z" fill="#3F3D56"/>
<path id="Vector_91" d="M91 19H90V37H91V19Z" fill="#3F3D56"/>
<path id="Vector_92" d="M96 19H95V37H96V19Z" fill="#3F3D56"/>
<path id="Vector_93" d="M100 19H99V37H100V19Z" fill="#3F3D56"/>
<path id="Vector_94" d="M105 19H104V37H105V19Z" fill="#3F3D56"/>
<path id="Vector_95" d="M114.96 0H77.04C76.4991 0.000366854 75.9804 0.228666 75.5979 0.634767C75.2154 1.04087 75.0003 1.59155 75 2.16587V16.8341C75.0003 17.4084 75.2154 17.9591 75.5979 18.3652C75.9804 18.7713 76.4991 18.9996 77.04 19H114.96C115.501 18.9996 116.02 18.7713 116.402 18.3652C116.785 17.9591 117 17.4084 117 16.8341V2.16587C117 1.59155 116.785 1.04087 116.402 0.634767C116.02 0.228666 115.501 0.000366854 114.96 0Z" fill="#6C63FF"/>
<path id="Vector_96" d="M78 0H77V19H78V0Z" fill="#3F3D56"/>
<path id="Vector_97" d="M83 0H82V19H83V0Z" fill="#3F3D56"/>
<path id="Vector_98" d="M87 0H86V19H87V0Z" fill="#3F3D56"/>
<path id="Vector_99" d="M92 0H91V19H92V0Z" fill="#3F3D56"/>
<path id="Vector_100" d="M96 0H95V19H96V0Z" fill="#3F3D56"/>
<path id="Vector_101" d="M101 0H100V19H101V0Z" fill="#3F3D56"/>
<path id="Vector_102" d="M105 0H104V19H105V0Z" fill="#3F3D56"/>
<path id="Vector_103" d="M110 0H109V19H110V0Z" fill="#3F3D56"/>
<path id="Vector_104" d="M114 0H113V19H114V0Z" fill="#3F3D56"/>
<path id="Vector_105" d="M239.227 38.3886C239.164 38.1591 239.082 37.9352 238.983 37.719L234.277 27.5291C233.932 26.7815 233.382 26.1487 232.691 25.7053C232.001 25.2619 231.199 25.0263 230.38 25.0263H211.08C210.261 25.0263 209.459 25.2619 208.769 25.7053C208.078 26.1487 207.528 26.7815 207.182 27.5291L203.314 35.9072H93.0131L89.267 27.7945C88.9218 27.0469 88.3715 26.4141 87.681 25.9707C86.9905 25.5273 86.1884 25.2917 85.3694 25.2917H66.0697C65.3289 25.292 64.6009 25.4854 63.9564 25.8529L60.7114 20.0203C60.4971 19.6351 60.162 19.3324 59.7585 19.1595C59.355 18.9865 58.906 18.9532 58.4816 19.0646C58.0573 19.1761 57.6817 19.4261 57.4136 19.7754C57.1454 20.1247 57 20.5537 57 20.9951V66.803C57 67.4855 57.1336 68.1613 57.393 68.7918C57.6525 69.4223 58.0328 69.9952 58.5122 70.4778C58.9917 70.9604 59.5608 71.3432 60.1873 71.6044C60.8137 71.8656 61.4851 72 62.1631 72H209.857C210.545 72 211.225 71.8617 211.859 71.5932C212.493 71.3248 213.067 70.9315 213.548 70.4366L238.516 44.7378C239.327 43.9145 239.839 42.8398 239.968 41.6876C240.097 40.5354 239.836 39.373 239.227 38.3886Z" fill="#3F3D56"/>
<path id="Vector_106" d="M213.15 35H210.85C210.36 34.9994 209.889 34.7808 209.543 34.3923C209.196 34.0038 209.001 33.4771 209 32.9276V30.0724C209.001 29.5229 209.196 28.9962 209.543 28.6077C209.889 28.2192 210.36 28.0006 210.85 28H213.15C213.64 28.0006 214.111 28.2192 214.457 28.6077C214.804 28.9962 214.999 29.5229 215 30.0724V32.9276C214.999 33.4771 214.804 34.0038 214.457 34.3923C214.111 34.7808 213.64 34.9994 213.15 35Z" fill="white"/>
<path id="Vector_107" d="M222.15 35H219.85C219.36 34.9994 218.889 34.7808 218.543 34.3923C218.196 34.0038 218.001 33.4771 218 32.9276V30.0724C218.001 29.5229 218.196 28.9962 218.543 28.6077C218.889 28.2192 219.36 28.0006 219.85 28H222.15C222.64 28.0006 223.111 28.2192 223.457 28.6077C223.804 28.9962 223.999 29.5229 224 30.0724V32.9276C223.999 33.4771 223.804 34.0038 223.457 34.3923C223.111 34.7808 222.64 34.9994 222.15 35Z" fill="white"/>
<path id="Vector_108" d="M230.841 35H228.159C227.586 34.9994 227.038 34.7808 226.633 34.3923C226.228 34.0038 226.001 33.4771 226 32.9276V30.0724C226.001 29.5229 226.228 28.9962 226.633 28.6077C227.038 28.2192 227.586 28.0006 228.159 28H230.841C231.414 28.0006 231.962 28.2192 232.367 28.6077C232.772 28.9962 232.999 29.5229 233 30.0724V32.9276C232.999 33.4771 232.772 34.0038 232.367 34.3923C231.962 34.7808 231.414 34.9994 230.841 35Z" fill="white"/>
<path id="Vector_109" d="M68.1497 35H65.8503C65.3598 34.9995 64.8895 34.8122 64.5426 34.4791C64.1957 34.1461 64.0006 33.6946 64 33.2237V30.7763C64.0006 30.3054 64.1957 29.8539 64.5426 29.5209C64.8895 29.1879 65.3598 29.0005 65.8503 29H68.1497C68.6402 29.0005 69.1105 29.1879 69.4574 29.5209C69.8043 29.8539 69.9994 30.3054 70 30.7763V33.2237C69.9994 33.6946 69.8043 34.1461 69.4574 34.4791C69.1105 34.8122 68.6402 34.9995 68.1497 35Z" fill="white"/>
<path id="Vector_110" d="M76.8413 35H74.1587C73.5864 34.9995 73.0377 34.8122 72.633 34.4791C72.2283 34.1461 72.0007 33.6946 72 33.2237V30.7763C72.0007 30.3054 72.2283 29.8539 72.633 29.5209C73.0377 29.1879 73.5864 29.0005 74.1587 29H76.8413C77.4136 29.0005 77.9623 29.1879 78.367 29.5209C78.7717 29.8539 78.9993 30.3054 79 30.7763V33.2237C78.9993 33.6946 78.7717 34.1461 78.367 34.4791C77.9623 34.8122 77.4136 34.9995 76.8413 35Z" fill="white"/>
<path id="Vector_111" d="M85.1497 35H82.8503C82.3598 34.9995 81.8895 34.8122 81.5426 34.4791C81.1957 34.1461 81.0006 33.6946 81 33.2237V30.7763C81.0006 30.3054 81.1957 29.8539 81.5426 29.5209C81.8895 29.1879 82.3598 29.0005 82.8503 29H85.1497C85.6402 29.0005 86.1105 29.1879 86.4574 29.5209C86.8043 29.8539 86.9994 30.3054 87 30.7763V33.2237C86.9994 33.6946 86.8043 34.1461 86.4574 34.4791C86.1105 34.8122 85.6402 34.9995 85.1497 35Z" fill="white"/>
</g>
<path id="Vector_112" d="M53.0628 64.0049C46.2467 63.845 38.9396 67.5902 37 74L74 72.5229C73.3003 72.0486 72.5974 71.5802 71.8913 71.1177C66.2143 67.415 59.8788 64.1649 53.0628 64.0049Z" fill="#6C63FF"/>
<path id="Vector_113" d="M74 71.9636C78.9289 75.4337 83.739 79.137 89.2309 81.546C102.83 87.5109 118.484 84.729 132.793 80.8521C147.101 76.9751 161.707 72.0491 176.383 74.0473C184.705 75.1804 192.561 78.4965 200.594 80.9844C208.627 83.4723 217.269 85.1382 225.374 82.9045C233.478 80.6709 240.788 73.5879 241 65.0393C179.817 53.5176 123.093 53.1755 74 71.9636Z" fill="#6C63FF"/>
</g>
</svg>
